<svg xmlns="http://www.w3.org/2000/svg" viewBox="0 0 512 512" role="img" aria-labelledby="title">
  <title id="title">Mora Vinería</title>
  <rect width="512" height="512" fill="#D7268F"/>
  <g transform="translate(64 58) scale(.75)" fill="#F2C6D8">
    <path d="M105 367C82 272 113 148 169 102c24-19 48-10 49 27 2 48-18 121 4 158 13 22 29 19 45-4 34-50 49-114 98-138 39-19 73 7 64 49-6 30-24 60-36 88l-30-13c13-36 26-68 15-79-14-13-38 9-56 39-28 48-44 105-84 127-39 22-72-1-84-40-17-56 9-137 12-171-26 37-45 109-42 173 1 21 5 38 7 47l-26 2Z"/>
    <path d="M393 286c13 16 20 26 20 37 0 13-9 22-21 22s-21-9-21-22c0-11 8-21 22-37Z"/>
    <path d="M350 359h82c-2 31-12 54-31 64v29h21c7 0 12 5 12 11s-5 11-12 11h-62c-7 0-12-5-12-11s5-11 12-11h20v-29c-18-10-28-33-30-64Z"/>
  </g>
</svg>
